<mxfile host="app.diagrams.net" agent="Mozilla/5.0 (Windows NT 10.0; Win64; x64) AppleWebKit/537.36 (KHTML, like Gecko) Chrome/127.0.0.0 Safari/537.36" version="24.7.7" pages="2">
  <diagram name="ArchitetturaMOM" id="CntYA9vMGlPCgrWxbRRX">
    <mxGraphModel dx="880" dy="434" grid="1" gridSize="10" guides="1" tooltips="1" connect="1" arrows="1" fold="1" page="1" pageScale="1" pageWidth="827" pageHeight="1169" math="0" shadow="0">
      <root>
        <mxCell id="0" />
        <mxCell id="1" parent="0" />
        <mxCell id="bNAYjFdFDs2m8wtBU_4h-1" value="" style="rounded=0;whiteSpace=wrap;html=1;" parent="1" vertex="1">
          <mxGeometry x="295" y="680" width="160" height="100" as="geometry" />
        </mxCell>
        <mxCell id="bNAYjFdFDs2m8wtBU_4h-2" value="" style="rounded=0;whiteSpace=wrap;html=1;" parent="1" vertex="1">
          <mxGeometry x="120" y="870" width="340" height="100" as="geometry" />
        </mxCell>
        <mxCell id="bNAYjFdFDs2m8wtBU_4h-3" value="Client" style="rounded=1;whiteSpace=wrap;html=1;" parent="1" vertex="1">
          <mxGeometry x="270" y="490" width="120" height="60" as="geometry" />
        </mxCell>
        <mxCell id="bNAYjFdFDs2m8wtBU_4h-4" value="Client" style="rounded=1;whiteSpace=wrap;html=1;" parent="1" vertex="1">
          <mxGeometry x="120" y="490" width="120" height="60" as="geometry" />
        </mxCell>
        <mxCell id="bNAYjFdFDs2m8wtBU_4h-5" value="" style="group" parent="1" vertex="1" connectable="0">
          <mxGeometry x="155" y="430" width="50" height="60" as="geometry" />
        </mxCell>
        <mxCell id="bNAYjFdFDs2m8wtBU_4h-6" value="" style="verticalLabelPosition=bottom;verticalAlign=top;html=1;shape=mxgraph.basic.rect;fillColor2=none;strokeWidth=1;size=20;indent=5;" parent="bNAYjFdFDs2m8wtBU_4h-5" vertex="1">
          <mxGeometry y="40" width="50" height="20" as="geometry" />
        </mxCell>
        <mxCell id="bNAYjFdFDs2m8wtBU_4h-7" value="" style="verticalLabelPosition=bottom;verticalAlign=top;html=1;shape=mxgraph.basic.rect;fillColor2=none;strokeWidth=1;size=20;indent=5;" parent="bNAYjFdFDs2m8wtBU_4h-5" vertex="1">
          <mxGeometry y="20" width="50" height="20" as="geometry" />
        </mxCell>
        <mxCell id="bNAYjFdFDs2m8wtBU_4h-8" value="" style="verticalLabelPosition=bottom;verticalAlign=top;html=1;shape=mxgraph.basic.rect;fillColor2=none;strokeWidth=1;size=20;indent=5;" parent="bNAYjFdFDs2m8wtBU_4h-5" vertex="1">
          <mxGeometry width="50" height="20" as="geometry" />
        </mxCell>
        <mxCell id="bNAYjFdFDs2m8wtBU_4h-9" value="" style="group" parent="1" vertex="1" connectable="0">
          <mxGeometry x="310" y="430" width="50" height="60" as="geometry" />
        </mxCell>
        <mxCell id="bNAYjFdFDs2m8wtBU_4h-10" value="" style="verticalLabelPosition=bottom;verticalAlign=top;html=1;shape=mxgraph.basic.rect;fillColor2=none;strokeWidth=1;size=20;indent=5;" parent="bNAYjFdFDs2m8wtBU_4h-9" vertex="1">
          <mxGeometry y="40" width="50" height="20" as="geometry" />
        </mxCell>
        <mxCell id="bNAYjFdFDs2m8wtBU_4h-11" value="" style="verticalLabelPosition=bottom;verticalAlign=top;html=1;shape=mxgraph.basic.rect;fillColor2=none;strokeWidth=1;size=20;indent=5;" parent="bNAYjFdFDs2m8wtBU_4h-9" vertex="1">
          <mxGeometry y="20" width="50" height="20" as="geometry" />
        </mxCell>
        <mxCell id="bNAYjFdFDs2m8wtBU_4h-12" value="" style="verticalLabelPosition=bottom;verticalAlign=top;html=1;shape=mxgraph.basic.rect;fillColor2=none;strokeWidth=1;size=20;indent=5;" parent="bNAYjFdFDs2m8wtBU_4h-9" vertex="1">
          <mxGeometry width="50" height="20" as="geometry" />
        </mxCell>
        <mxCell id="bNAYjFdFDs2m8wtBU_4h-13" value="" style="group" parent="1" vertex="1" connectable="0">
          <mxGeometry x="230" y="180" width="50" height="60" as="geometry" />
        </mxCell>
        <mxCell id="bNAYjFdFDs2m8wtBU_4h-14" value="" style="verticalLabelPosition=bottom;verticalAlign=top;html=1;shape=mxgraph.basic.rect;fillColor2=none;strokeWidth=1;size=20;indent=5;" parent="bNAYjFdFDs2m8wtBU_4h-13" vertex="1">
          <mxGeometry y="40" width="50" height="20" as="geometry" />
        </mxCell>
        <mxCell id="bNAYjFdFDs2m8wtBU_4h-15" value="" style="verticalLabelPosition=bottom;verticalAlign=top;html=1;shape=mxgraph.basic.rect;fillColor2=none;strokeWidth=1;size=20;indent=5;" parent="bNAYjFdFDs2m8wtBU_4h-13" vertex="1">
          <mxGeometry y="20" width="50" height="20" as="geometry" />
        </mxCell>
        <mxCell id="bNAYjFdFDs2m8wtBU_4h-16" value="" style="verticalLabelPosition=bottom;verticalAlign=top;html=1;shape=mxgraph.basic.rect;fillColor2=none;strokeWidth=1;size=20;indent=5;" parent="bNAYjFdFDs2m8wtBU_4h-13" vertex="1">
          <mxGeometry width="50" height="20" as="geometry" />
        </mxCell>
        <mxCell id="bNAYjFdFDs2m8wtBU_4h-17" style="edgeStyle=orthogonalEdgeStyle;rounded=0;orthogonalLoop=1;jettySize=auto;html=1;exitX=0.5;exitY=1;exitDx=0;exitDy=0;entryX=0.5;entryY=0.2;entryDx=0;entryDy=0;entryPerimeter=0;" parent="1" target="bNAYjFdFDs2m8wtBU_4h-8" edge="1">
          <mxGeometry relative="1" as="geometry">
            <mxPoint x="260" y="300" as="sourcePoint" />
          </mxGeometry>
        </mxCell>
        <mxCell id="bNAYjFdFDs2m8wtBU_4h-18" style="edgeStyle=orthogonalEdgeStyle;rounded=0;orthogonalLoop=1;jettySize=auto;html=1;exitX=0.5;exitY=1;exitDx=0;exitDy=0;entryX=0.52;entryY=0.2;entryDx=0;entryDy=0;entryPerimeter=0;" parent="1" target="bNAYjFdFDs2m8wtBU_4h-12" edge="1">
          <mxGeometry relative="1" as="geometry">
            <mxPoint x="260" y="300" as="sourcePoint" />
          </mxGeometry>
        </mxCell>
        <mxCell id="bNAYjFdFDs2m8wtBU_4h-19" value="&lt;div&gt;[Exchange]&lt;/div&gt;Grid" style="shape=hexagon;perimeter=hexagonPerimeter2;whiteSpace=wrap;html=1;fixedSize=1;" parent="1" vertex="1">
          <mxGeometry x="195" y="240" width="120" height="80" as="geometry" />
        </mxCell>
        <mxCell id="bNAYjFdFDs2m8wtBU_4h-20" style="edgeStyle=orthogonalEdgeStyle;rounded=0;orthogonalLoop=1;jettySize=auto;html=1;exitX=0;exitY=0.5;exitDx=0;exitDy=0;entryX=0.4;entryY=0;entryDx=0;entryDy=0;entryPerimeter=0;" parent="1" source="bNAYjFdFDs2m8wtBU_4h-4" target="bNAYjFdFDs2m8wtBU_4h-16" edge="1">
          <mxGeometry relative="1" as="geometry" />
        </mxCell>
        <mxCell id="bNAYjFdFDs2m8wtBU_4h-21" style="edgeStyle=orthogonalEdgeStyle;rounded=0;orthogonalLoop=1;jettySize=auto;html=1;exitX=1;exitY=0;exitDx=0;exitDy=0;entryX=0.6;entryY=0;entryDx=0;entryDy=0;entryPerimeter=0;" parent="1" source="bNAYjFdFDs2m8wtBU_4h-3" target="bNAYjFdFDs2m8wtBU_4h-16" edge="1">
          <mxGeometry relative="1" as="geometry" />
        </mxCell>
        <mxCell id="bNAYjFdFDs2m8wtBU_4h-22" style="rounded=0;orthogonalLoop=1;jettySize=auto;html=1;exitX=1;exitY=1;exitDx=0;exitDy=0;entryX=0;entryY=0;entryDx=0;entryDy=0;" parent="1" source="bNAYjFdFDs2m8wtBU_4h-23" target="bNAYjFdFDs2m8wtBU_4h-29" edge="1">
          <mxGeometry relative="1" as="geometry" />
        </mxCell>
        <mxCell id="bNAYjFdFDs2m8wtBU_4h-23" value="Client" style="rounded=1;whiteSpace=wrap;html=1;" parent="1" vertex="1">
          <mxGeometry x="140" y="700" width="120" height="60" as="geometry" />
        </mxCell>
        <mxCell id="bNAYjFdFDs2m8wtBU_4h-24" style="rounded=0;orthogonalLoop=1;jettySize=auto;html=1;exitX=0;exitY=1;exitDx=0;exitDy=0;entryX=1;entryY=0;entryDx=0;entryDy=0;" parent="1" source="bNAYjFdFDs2m8wtBU_4h-25" target="bNAYjFdFDs2m8wtBU_4h-27" edge="1">
          <mxGeometry relative="1" as="geometry" />
        </mxCell>
        <mxCell id="bNAYjFdFDs2m8wtBU_4h-25" value="Grid" style="rounded=1;whiteSpace=wrap;html=1;" parent="1" vertex="1">
          <mxGeometry x="315" y="700" width="120" height="60" as="geometry" />
        </mxCell>
        <mxCell id="bNAYjFdFDs2m8wtBU_4h-26" style="edgeStyle=orthogonalEdgeStyle;rounded=0;orthogonalLoop=1;jettySize=auto;html=1;exitX=0.5;exitY=0;exitDx=0;exitDy=0;entryX=0.5;entryY=1;entryDx=0;entryDy=0;startArrow=classic;startFill=1;" parent="1" source="bNAYjFdFDs2m8wtBU_4h-27" target="bNAYjFdFDs2m8wtBU_4h-23" edge="1">
          <mxGeometry relative="1" as="geometry" />
        </mxCell>
        <mxCell id="bNAYjFdFDs2m8wtBU_4h-27" value="Client-Stub" style="rounded=1;whiteSpace=wrap;html=1;" parent="1" vertex="1">
          <mxGeometry x="140" y="890" width="120" height="60" as="geometry" />
        </mxCell>
        <mxCell id="bNAYjFdFDs2m8wtBU_4h-28" style="edgeStyle=orthogonalEdgeStyle;rounded=0;orthogonalLoop=1;jettySize=auto;html=1;exitX=0.5;exitY=0;exitDx=0;exitDy=0;entryX=0.5;entryY=1;entryDx=0;entryDy=0;startArrow=classic;startFill=1;" parent="1" source="bNAYjFdFDs2m8wtBU_4h-29" target="bNAYjFdFDs2m8wtBU_4h-25" edge="1">
          <mxGeometry relative="1" as="geometry" />
        </mxCell>
        <mxCell id="bNAYjFdFDs2m8wtBU_4h-29" value="Grid-Stub" style="rounded=1;whiteSpace=wrap;html=1;" parent="1" vertex="1">
          <mxGeometry x="315" y="890" width="120" height="60" as="geometry" />
        </mxCell>
        <mxCell id="bNAYjFdFDs2m8wtBU_4h-30" value="&lt;font style=&quot;font-size: 11px;&quot;&gt;RMI&lt;/font&gt;&lt;div style=&quot;font-size: 11px;&quot;&gt;&lt;font style=&quot;font-size: 11px;&quot;&gt;Registry&lt;/font&gt;&lt;/div&gt;" style="rounded=0;whiteSpace=wrap;html=1;" parent="1" vertex="1">
          <mxGeometry x="100" y="850" width="70" height="30" as="geometry" />
        </mxCell>
        <mxCell id="bNAYjFdFDs2m8wtBU_4h-31" value="&lt;span style=&quot;font-size: 11px;&quot;&gt;Registration&lt;/span&gt;&lt;div&gt;&lt;span style=&quot;font-size: 11px;&quot;&gt;Service&lt;/span&gt;&lt;/div&gt;" style="rounded=0;whiteSpace=wrap;html=1;" parent="1" vertex="1">
          <mxGeometry x="414" y="660" width="70" height="30" as="geometry" />
        </mxCell>
      </root>
    </mxGraphModel>
  </diagram>
  <diagram id="pXLD_QXOUQwRk1QZy68U" name="ArchitetturaRMI">
    <mxGraphModel dx="880" dy="434" grid="1" gridSize="10" guides="1" tooltips="1" connect="1" arrows="1" fold="1" page="1" pageScale="1" pageWidth="827" pageHeight="1169" math="0" shadow="0">
      <root>
        <mxCell id="0" />
        <mxCell id="1" parent="0" />
        <mxCell id="c7-vGzGxDoARd_i6yG1X-1" value="" style="rounded=0;whiteSpace=wrap;html=1;gradientColor=none;fillColor=default;" vertex="1" parent="1">
          <mxGeometry x="295" y="680" width="160" height="100" as="geometry" />
        </mxCell>
        <mxCell id="c7-vGzGxDoARd_i6yG1X-2" value="" style="rounded=0;whiteSpace=wrap;html=1;fillColor=default;" vertex="1" parent="1">
          <mxGeometry x="120" y="870" width="340" height="100" as="geometry" />
        </mxCell>
        <mxCell id="c7-vGzGxDoARd_i6yG1X-3" style="rounded=0;orthogonalLoop=1;jettySize=auto;html=1;exitX=1;exitY=1;exitDx=0;exitDy=0;entryX=0;entryY=0;entryDx=0;entryDy=0;" edge="1" parent="1" source="c7-vGzGxDoARd_i6yG1X-4" target="c7-vGzGxDoARd_i6yG1X-10">
          <mxGeometry relative="1" as="geometry" />
        </mxCell>
        <mxCell id="c7-vGzGxDoARd_i6yG1X-4" value="Client" style="rounded=1;whiteSpace=wrap;html=1;" vertex="1" parent="1">
          <mxGeometry x="140" y="700" width="120" height="60" as="geometry" />
        </mxCell>
        <mxCell id="c7-vGzGxDoARd_i6yG1X-5" style="rounded=0;orthogonalLoop=1;jettySize=auto;html=1;exitX=0;exitY=1;exitDx=0;exitDy=0;entryX=1;entryY=0;entryDx=0;entryDy=0;" edge="1" parent="1" source="c7-vGzGxDoARd_i6yG1X-6" target="c7-vGzGxDoARd_i6yG1X-8">
          <mxGeometry relative="1" as="geometry" />
        </mxCell>
        <mxCell id="c7-vGzGxDoARd_i6yG1X-6" value="Grid" style="rounded=1;whiteSpace=wrap;html=1;" vertex="1" parent="1">
          <mxGeometry x="315" y="700" width="120" height="60" as="geometry" />
        </mxCell>
        <mxCell id="c7-vGzGxDoARd_i6yG1X-7" style="edgeStyle=orthogonalEdgeStyle;rounded=0;orthogonalLoop=1;jettySize=auto;html=1;exitX=0.5;exitY=0;exitDx=0;exitDy=0;entryX=0.5;entryY=1;entryDx=0;entryDy=0;startArrow=classic;startFill=1;" edge="1" parent="1" source="c7-vGzGxDoARd_i6yG1X-8" target="c7-vGzGxDoARd_i6yG1X-4">
          <mxGeometry relative="1" as="geometry" />
        </mxCell>
        <mxCell id="c7-vGzGxDoARd_i6yG1X-8" value="Client-Stub" style="rounded=1;whiteSpace=wrap;html=1;" vertex="1" parent="1">
          <mxGeometry x="140" y="890" width="120" height="60" as="geometry" />
        </mxCell>
        <mxCell id="c7-vGzGxDoARd_i6yG1X-9" style="edgeStyle=orthogonalEdgeStyle;rounded=0;orthogonalLoop=1;jettySize=auto;html=1;exitX=0.5;exitY=0;exitDx=0;exitDy=0;entryX=0.5;entryY=1;entryDx=0;entryDy=0;startArrow=classic;startFill=1;" edge="1" parent="1" source="c7-vGzGxDoARd_i6yG1X-10" target="c7-vGzGxDoARd_i6yG1X-6">
          <mxGeometry relative="1" as="geometry" />
        </mxCell>
        <mxCell id="c7-vGzGxDoARd_i6yG1X-10" value="Grid-Stub" style="rounded=1;whiteSpace=wrap;html=1;" vertex="1" parent="1">
          <mxGeometry x="315" y="890" width="120" height="60" as="geometry" />
        </mxCell>
        <mxCell id="c7-vGzGxDoARd_i6yG1X-11" value="&lt;font style=&quot;font-size: 11px;&quot;&gt;RMI&lt;/font&gt;&lt;div style=&quot;font-size: 11px;&quot;&gt;&lt;font style=&quot;font-size: 11px;&quot;&gt;Registry&lt;/font&gt;&lt;/div&gt;" style="rounded=0;whiteSpace=wrap;html=1;" vertex="1" parent="1">
          <mxGeometry x="120" y="840" width="70" height="30" as="geometry" />
        </mxCell>
        <mxCell id="c7-vGzGxDoARd_i6yG1X-12" value="&lt;span style=&quot;font-size: 11px;&quot;&gt;Registration&lt;/span&gt;&lt;div&gt;&lt;span style=&quot;font-size: 11px;&quot;&gt;Service&lt;/span&gt;&lt;/div&gt;" style="rounded=0;whiteSpace=wrap;html=1;" vertex="1" parent="1">
          <mxGeometry x="295" y="650" width="95" height="30" as="geometry" />
        </mxCell>
      </root>
    </mxGraphModel>
  </diagram>
</mxfile>
